<mxfile host="app.diagrams.net" modified="2022-11-25T16:23:05.365Z" agent="5.0 (Windows NT 10.0; Win64; x64) AppleWebKit/537.36 (KHTML, like Gecko) Chrome/107.0.0.0 Safari/537.36" etag="6owrPk005xO9Dzwtcq1p" version="20.6.0" type="github">
  <diagram id="6a731a19-8d31-9384-78a2-239565b7b9f0" name="Page-1">
    <mxGraphModel dx="3460" dy="1710" grid="1" gridSize="10" guides="1" tooltips="1" connect="1" arrows="1" fold="1" page="1" pageScale="1" pageWidth="750" pageHeight="1400" background="#95B3D7" math="0" shadow="0">
      <root>
        <mxCell id="0" />
        <mxCell id="1" parent="0" />
        <mxCell id="4n4TojT3hLfVld2RYmvY-1032" value="" style="ellipse;whiteSpace=wrap;html=1;fontFamily=Verdana;fontSize=16;fontColor=#DDDDDD;strokeColor=none;fillColor=#1F497D;" vertex="1" parent="1">
          <mxGeometry x="780" y="2000" width="750" height="750" as="geometry" />
        </mxCell>
        <mxCell id="4n4TojT3hLfVld2RYmvY-1031" value="" style="ellipse;whiteSpace=wrap;html=1;fontFamily=Verdana;fontSize=16;fontColor=#DDDDDD;strokeColor=none;fillColor=#1F497D;" vertex="1" parent="1">
          <mxGeometry x="1470" y="1500" width="750" height="750" as="geometry" />
        </mxCell>
        <mxCell id="4n4TojT3hLfVld2RYmvY-1033" value="" style="ellipse;whiteSpace=wrap;html=1;fontFamily=Verdana;fontSize=16;fontColor=#DDDDDD;strokeColor=none;fillColor=#1F497D;" vertex="1" parent="1">
          <mxGeometry x="780" y="1000" width="750" height="750" as="geometry" />
        </mxCell>
        <mxCell id="980" value="" style="ellipse;whiteSpace=wrap;html=1;fontFamily=Verdana;fontSize=16;fontColor=#DDDDDD;strokeColor=none;fillColor=#1F497D;" parent="1" vertex="1">
          <mxGeometry x="780" width="750" height="750" as="geometry" />
        </mxCell>
        <mxCell id="984" value="" style="ellipse;whiteSpace=wrap;html=1;fontFamily=Verdana;fontSize=16;fontColor=#DDDDDD;strokeColor=none;fillColor=#1F497D;" parent="1" vertex="1">
          <mxGeometry x="1470" y="500" width="750" height="750" as="geometry" />
        </mxCell>
        <mxCell id="985" value="&lt;font style=&quot;font-size: 52px;&quot;&gt;COMMUNITY &lt;br&gt;CONTRIBUTIONS&lt;/font&gt;" style="text;resizable=1;points=[];autosize=1;align=left;verticalAlign=top;spacingTop=-4;fontSize=24;fontFamily=Verdana;fontColor=#9BBB59;fontStyle=1;html=1;overflow=fill;strokeOpacity=100;" parent="1" vertex="1">
          <mxGeometry x="900" y="240" width="520" height="130" as="geometry" />
        </mxCell>
        <mxCell id="986" value="&lt;font style=&quot;font-size: 200px;&quot; color=&quot;#eeece1&quot;&gt;1&amp;nbsp;&lt;/font&gt;" style="text;html=1;resizable=0;points=[];autosize=1;align=left;verticalAlign=top;spacingTop=-4;fontSize=100;fontFamily=Verdana;fontColor=#F18808;fontStyle=1" parent="1" vertex="1">
          <mxGeometry x="739" y="92" width="230" height="250" as="geometry" />
        </mxCell>
        <mxCell id="987" value="&lt;font style=&quot;font-size: 200px;&quot; color=&quot;#eeece1&quot;&gt;2&lt;/font&gt;" style="text;html=1;resizable=0;points=[];autosize=1;align=left;verticalAlign=top;spacingTop=-4;fontSize=100;fontFamily=Verdana;fontColor=#F18808;fontStyle=1" parent="1" vertex="1">
          <mxGeometry x="1420" y="575" width="170" height="250" as="geometry" />
        </mxCell>
        <mxCell id="988" value="&lt;font style=&quot;font-size: 200px;&quot; color=&quot;#eeece1&quot;&gt;3&lt;/font&gt;" style="text;html=1;resizable=0;points=[];autosize=1;align=left;verticalAlign=top;spacingTop=-4;fontSize=100;fontFamily=Verdana;fontColor=#F18808;fontStyle=1" parent="1" vertex="1">
          <mxGeometry x="750" y="1069" width="170" height="250" as="geometry" />
        </mxCell>
        <mxCell id="989" value="&lt;font style=&quot;font-size: 200px;&quot; color=&quot;#eeece1&quot;&gt;4&lt;/font&gt;" style="text;html=1;resizable=0;points=[];autosize=1;align=left;verticalAlign=top;spacingTop=-4;fontSize=100;fontFamily=Verdana;fontColor=#F18808;fontStyle=1" parent="1" vertex="1">
          <mxGeometry x="1419.91" y="1580" width="170" height="250" as="geometry" />
        </mxCell>
        <mxCell id="990" value="&lt;font style=&quot;font-size: 200px;&quot; color=&quot;#eeece1&quot;&gt;5&lt;/font&gt;" style="text;html=1;resizable=0;points=[];autosize=1;align=left;verticalAlign=top;spacingTop=-4;fontSize=100;fontFamily=Verdana;fontColor=#F18808;fontStyle=1" parent="1" vertex="1">
          <mxGeometry x="747" y="2015" width="170" height="250" as="geometry" />
        </mxCell>
        <mxCell id="994" value="&lt;div style=&quot;line-height: 150%; font-size: 52px;&quot;&gt;&lt;font style=&quot;font-size: 52px;&quot; color=&quot;#9bbb59&quot;&gt;AUTOMATED CI&lt;/font&gt;&lt;/div&gt;&lt;div style=&quot;line-height: 150%; font-size: 52px;&quot;&gt;&lt;font style=&quot;font-size: 52px;&quot; color=&quot;#9bbb59&quot;&gt;TESTING TRIGGERS&lt;/font&gt;&lt;/div&gt;" style="text;html=1;resizable=0;points=[];autosize=1;align=left;verticalAlign=top;spacingTop=-4;fontSize=24;fontFamily=Verdana;fontColor=#DDDDDD;fontStyle=1" parent="1" vertex="1">
          <mxGeometry x="1575" y="720" width="600" height="160" as="geometry" />
        </mxCell>
        <mxCell id="995" value="&lt;font style=&quot;font-size: 52px;&quot; color=&quot;#9bbb59&quot;&gt;PULL REQUEST&amp;nbsp;&lt;br&gt;SHOWS RESULTS&lt;br&gt;&lt;/font&gt;" style="text;html=1;resizable=0;points=[];autosize=1;align=left;verticalAlign=top;spacingTop=-4;fontSize=24;fontFamily=Verdana;fontColor=#DDDDDD;fontStyle=1" parent="1" vertex="1">
          <mxGeometry x="899.9999999999999" y="1210" width="520" height="130" as="geometry" />
        </mxCell>
        <mxCell id="996" value="&lt;font style=&quot;font-size: 52px;&quot; color=&quot;#9bbb59&quot;&gt;&lt;span style=&quot;&quot;&gt;SUBJECT MATTER&lt;br&gt;EXPERT REVIEW&lt;br&gt;&lt;/span&gt;&lt;/font&gt;" style="text;html=1;resizable=0;points=[];autosize=1;align=left;verticalAlign=top;spacingTop=-4;fontSize=24;fontFamily=Verdana;fontColor=#DDDDDD;fontStyle=1" parent="1" vertex="1">
          <mxGeometry x="1590" y="1700" width="530" height="130" as="geometry" />
        </mxCell>
        <mxCell id="997" value="&lt;div style=&quot;line-height: 150%&quot;&gt;&lt;font style=&quot;font-size: 52px;&quot; color=&quot;#9bbb59&quot;&gt;CODE IS MERGED&lt;/font&gt;&lt;/div&gt;" style="text;html=1;resizable=0;points=[];autosize=1;align=left;verticalAlign=top;spacingTop=-4;fontSize=24;fontFamily=Verdana;fontColor=#DDDDDD;fontStyle=1" parent="1" vertex="1">
          <mxGeometry x="889.9999999999999" y="2170" width="530" height="50" as="geometry" />
        </mxCell>
        <mxCell id="998" value="&lt;font style=&quot;font-size: 42px;&quot; color=&quot;#eeece1&quot;&gt;Pull Request is made to&lt;br&gt;the GitHub repository.&lt;br&gt;&lt;/font&gt;" style="text;html=1;resizable=0;points=[];autosize=1;align=left;verticalAlign=top;spacingTop=-4;fontSize=16;fontColor=#888888;fontFamily=Verdana;" parent="1" vertex="1">
          <mxGeometry x="900" y="390" width="520" height="110" as="geometry" />
        </mxCell>
        <mxCell id="1000" value="&lt;div style=&quot;line-height: 120%; font-size: 42px;&quot;&gt;&lt;font color=&quot;#eeece1&quot; style=&quot;line-height: 120%; font-size: 42px;&quot;&gt;GitHub runner uses API to&lt;/font&gt;&lt;/div&gt;&lt;div style=&quot;line-height: 120%; font-size: 42px;&quot;&gt;&lt;font style=&quot;font-size: 42px;&quot;&gt;&lt;font color=&quot;#eeece1&quot; style=&quot;line-height: 120%; font-size: 42px;&quot;&gt;launch&amp;nbsp;&lt;/font&gt;&lt;span style=&quot;color: rgb(238, 236, 225); background-color: initial;&quot;&gt;testing through&lt;/span&gt;&lt;/font&gt;&lt;/div&gt;&lt;div style=&quot;line-height: 120%; font-size: 42px;&quot;&gt;&lt;font style=&quot;font-size: 42px;&quot;&gt;&lt;span style=&quot;color: rgb(238, 236, 225); background-color: initial;&quot;&gt;Parallel Works&amp;nbsp;&lt;/span&gt;&lt;span style=&quot;background-color: initial; color: rgb(238, 236, 225);&quot;&gt;on&lt;/span&gt;&lt;/font&gt;&lt;/div&gt;&lt;div style=&quot;line-height: 120%; font-size: 42px;&quot;&gt;&lt;font style=&quot;font-size: 42px;&quot;&gt;&lt;span style=&quot;background-color: initial; color: rgb(238, 236, 225);&quot;&gt;the cloud&lt;/span&gt;&lt;span style=&quot;background-color: initial; color: rgb(238, 236, 225);&quot;&gt;.&lt;/span&gt;&lt;/font&gt;&lt;/div&gt;" style="text;resizable=0;points=[];autosize=1;align=left;verticalAlign=top;spacingTop=-4;fontSize=16;fontFamily=Verdana;fontColor=#888888;html=1;" parent="1" vertex="1">
          <mxGeometry x="1589.91" y="900" width="580" height="210" as="geometry" />
        </mxCell>
        <mxCell id="1002" value="&lt;font style=&quot;font-size: 42px;&quot; color=&quot;#eeece1&quot;&gt;The status of the CI&lt;br&gt;tests is shown on the PR.&lt;br&gt;&lt;/font&gt;" style="text;html=1;resizable=0;points=[];autosize=1;align=left;verticalAlign=top;spacingTop=-4;fontSize=16;fontColor=#888888;fontFamily=Verdana;" parent="1" vertex="1">
          <mxGeometry x="900" y="1370" width="560" height="110" as="geometry" />
        </mxCell>
        <mxCell id="1003" value="&lt;font style=&quot;font-size: 42px;&quot; color=&quot;#eeece1&quot;&gt;Reviewer&amp;nbsp;will request&lt;br&gt;changes or approve code.&lt;br&gt;&lt;/font&gt;" style="text;html=1;resizable=0;points=[];autosize=1;align=left;verticalAlign=top;spacingTop=-4;fontSize=16;fontColor=#888888;fontFamily=Verdana;" parent="1" vertex="1">
          <mxGeometry x="1594.91" y="1860" width="570" height="110" as="geometry" />
        </mxCell>
        <mxCell id="1004" value="&lt;font style=&quot;font-size: 42px;&quot; color=&quot;#eeece1&quot;&gt;Once approved by the&lt;br&gt;reviewer, a code&lt;br&gt;manager will merge&lt;br&gt;the PR.&amp;nbsp;&lt;br&gt;&lt;/font&gt;" style="text;html=1;resizable=0;points=[];autosize=1;align=left;verticalAlign=top;spacingTop=-4;fontSize=16;fontColor=#888888;fontFamily=Verdana;" parent="1" vertex="1">
          <mxGeometry x="890" y="2260" width="490" height="210" as="geometry" />
        </mxCell>
        <mxCell id="1007" value="" style="endArrow=oval;html=1;strokeColor=#EEECE1;fontFamily=Verdana;fontSize=16;fontColor=#DDDDDD;endFill=1;endSize=12;startArrow=oval;startFill=1;strokeWidth=4;movable=1;resizable=1;rotatable=1;deletable=1;editable=1;connectable=1;edgeStyle=orthogonalEdgeStyle;startSize=12;rounded=1;" parent="1" edge="1">
          <mxGeometry width="50" height="50" relative="1" as="geometry">
            <mxPoint x="1350" y="940" as="sourcePoint" />
            <mxPoint x="1532" y="370" as="targetPoint" />
            <Array as="points">
              <mxPoint x="1170" y="940" />
              <mxPoint x="1170" y="540" />
              <mxPoint x="1532" y="540" />
            </Array>
          </mxGeometry>
        </mxCell>
        <mxCell id="1016" value="" style="group;aspect=fixed;" parent="1" vertex="1" connectable="0">
          <mxGeometry x="1440" y="165" width="269.82" height="280" as="geometry" />
        </mxCell>
        <mxCell id="1017" value="" style="ellipse;whiteSpace=wrap;html=1;fillColor=none;fontFamily=Verdana;fontSize=16;fontColor=#DDDDDD;strokeColor=#EEECE1;strokeWidth=2;" parent="1016" vertex="1">
          <mxGeometry width="168.00113207547167" height="168.00000000000003" as="geometry" />
        </mxCell>
        <mxCell id="1018" value="" style="ellipse;whiteSpace=wrap;html=1;fillColor=#EEECE1;fontFamily=Verdana;fontSize=16;fontColor=#DDDDDD;strokeColor=none;" parent="1016" vertex="1">
          <mxGeometry x="10.18188679245283" y="10.181818181818183" width="147.63735849056602" height="147.63636363636368" as="geometry" />
        </mxCell>
        <mxCell id="2OWX0lFxsrAblKGcUKh9-1061" value="" style="verticalLabelPosition=bottom;sketch=0;html=1;fillColor=#000000;strokeColor=none;verticalAlign=top;pointerEvents=1;align=center;shape=mxgraph.cisco_safe.people_places_things_icons.icon9;aspect=fixed;" parent="1016" vertex="1">
          <mxGeometry x="28.152916981132073" y="33.727272727272734" width="111.72000000000003" height="100.54545454545456" as="geometry" />
        </mxCell>
        <mxCell id="2OWX0lFxsrAblKGcUKh9-1073" value="&lt;font style=&quot;font-size: 42px;&quot; color=&quot;#eeece1&quot;&gt;If changes are made, the&lt;br&gt;CI tests will re-trigger.&lt;br&gt;&lt;/font&gt;" style="text;html=1;resizable=0;points=[];autosize=1;align=left;verticalAlign=top;spacingTop=-4;fontSize=16;fontColor=#888888;fontFamily=Verdana;" parent="1" vertex="1">
          <mxGeometry x="1589.91" y="2000" width="560" height="110" as="geometry" />
        </mxCell>
        <mxCell id="4n4TojT3hLfVld2RYmvY-1038" value="" style="group;aspect=fixed;" vertex="1" connectable="0" parent="1">
          <mxGeometry x="1370" y="850" width="269.82" height="280" as="geometry" />
        </mxCell>
        <mxCell id="4n4TojT3hLfVld2RYmvY-1039" value="" style="ellipse;whiteSpace=wrap;html=1;fillColor=none;fontFamily=Verdana;fontSize=16;fontColor=#DDDDDD;strokeColor=#EEECE1;strokeWidth=2;" vertex="1" parent="4n4TojT3hLfVld2RYmvY-1038">
          <mxGeometry width="168.00113207547167" height="168.00000000000003" as="geometry" />
        </mxCell>
        <mxCell id="4n4TojT3hLfVld2RYmvY-1040" value="" style="ellipse;whiteSpace=wrap;html=1;fillColor=#EEECE1;fontFamily=Verdana;fontSize=16;fontColor=#DDDDDD;strokeColor=none;" vertex="1" parent="4n4TojT3hLfVld2RYmvY-1038">
          <mxGeometry x="10.18188679245283" y="10.181818181818183" width="147.63735849056602" height="147.63636363636368" as="geometry" />
        </mxCell>
        <mxCell id="2OWX0lFxsrAblKGcUKh9-1063" value="" style="verticalLabelPosition=bottom;html=1;verticalAlign=top;align=center;strokeColor=none;fillColor=#1A1A1A;shape=mxgraph.azure.cloud;aspect=fixed;" parent="4n4TojT3hLfVld2RYmvY-1038" vertex="1">
          <mxGeometry x="25.549999999999997" y="46" width="116.91" height="76" as="geometry" />
        </mxCell>
        <mxCell id="4n4TojT3hLfVld2RYmvY-1042" value="" style="group;aspect=fixed;" vertex="1" connectable="0" parent="1">
          <mxGeometry x="1380" y="1880" width="269.82" height="280" as="geometry" />
        </mxCell>
        <mxCell id="4n4TojT3hLfVld2RYmvY-1043" value="" style="ellipse;whiteSpace=wrap;html=1;fillColor=none;fontFamily=Verdana;fontSize=16;fontColor=#DDDDDD;strokeColor=#EEECE1;strokeWidth=2;" vertex="1" parent="4n4TojT3hLfVld2RYmvY-1042">
          <mxGeometry width="168.00113207547167" height="168.00000000000003" as="geometry" />
        </mxCell>
        <mxCell id="4n4TojT3hLfVld2RYmvY-1044" value="" style="ellipse;whiteSpace=wrap;html=1;fillColor=#EEECE1;fontFamily=Verdana;fontSize=16;fontColor=#DDDDDD;strokeColor=none;" vertex="1" parent="4n4TojT3hLfVld2RYmvY-1042">
          <mxGeometry x="10.18188679245283" y="10.181818181818183" width="147.63735849056602" height="147.63636363636368" as="geometry" />
        </mxCell>
        <mxCell id="2OWX0lFxsrAblKGcUKh9-1066" value="" style="sketch=0;pointerEvents=1;shadow=0;dashed=0;html=1;strokeColor=none;fillColor=#000000;labelPosition=center;verticalLabelPosition=bottom;verticalAlign=top;outlineConnect=0;align=center;shape=mxgraph.office.users.approver;aspect=fixed;" parent="4n4TojT3hLfVld2RYmvY-1042" vertex="1">
          <mxGeometry x="50" y="42.980000000000004" width="88.01" height="82.04" as="geometry" />
        </mxCell>
        <mxCell id="4n4TojT3hLfVld2RYmvY-1046" value="" style="group;aspect=fixed;" vertex="1" connectable="0" parent="1">
          <mxGeometry x="1450" y="2310" width="269.82" height="280" as="geometry" />
        </mxCell>
        <mxCell id="4n4TojT3hLfVld2RYmvY-1047" value="" style="ellipse;whiteSpace=wrap;html=1;fillColor=none;fontFamily=Verdana;fontSize=16;fontColor=#DDDDDD;strokeColor=#EEECE1;strokeWidth=2;" vertex="1" parent="4n4TojT3hLfVld2RYmvY-1046">
          <mxGeometry width="168.00113207547167" height="168.00000000000003" as="geometry" />
        </mxCell>
        <mxCell id="4n4TojT3hLfVld2RYmvY-1048" value="" style="ellipse;whiteSpace=wrap;html=1;fillColor=#EEECE1;fontFamily=Verdana;fontSize=16;fontColor=#DDDDDD;strokeColor=none;" vertex="1" parent="4n4TojT3hLfVld2RYmvY-1046">
          <mxGeometry x="10.18188679245283" y="10.181818181818183" width="147.63735849056602" height="147.63636363636368" as="geometry" />
        </mxCell>
        <mxCell id="4n4TojT3hLfVld2RYmvY-1060" value="" style="shape=image;html=1;verticalAlign=top;verticalLabelPosition=bottom;labelBackgroundColor=#ffffff;imageAspect=0;aspect=fixed;image=https://cdn0.iconfinder.com/data/icons/phosphor-regular-vol-3/256/git-merge-128.png;fontSize=42;" vertex="1" parent="4n4TojT3hLfVld2RYmvY-1046">
          <mxGeometry x="29.819999999999936" y="20" width="128" height="128" as="geometry" />
        </mxCell>
        <mxCell id="4n4TojT3hLfVld2RYmvY-1050" value="" style="group;aspect=fixed;" vertex="1" connectable="0" parent="1">
          <mxGeometry x="1450" y="1262" width="269.82" height="280" as="geometry" />
        </mxCell>
        <mxCell id="4n4TojT3hLfVld2RYmvY-1051" value="" style="ellipse;whiteSpace=wrap;html=1;fillColor=none;fontFamily=Verdana;fontSize=16;fontColor=#DDDDDD;strokeColor=#EEECE1;strokeWidth=2;" vertex="1" parent="4n4TojT3hLfVld2RYmvY-1050">
          <mxGeometry width="168.00113207547167" height="168.00000000000003" as="geometry" />
        </mxCell>
        <mxCell id="4n4TojT3hLfVld2RYmvY-1052" value="" style="ellipse;whiteSpace=wrap;html=1;fillColor=#EEECE1;fontFamily=Verdana;fontSize=16;fontColor=#DDDDDD;strokeColor=none;" vertex="1" parent="4n4TojT3hLfVld2RYmvY-1050">
          <mxGeometry x="10.18188679245283" y="10.181818181818183" width="147.63735849056602" height="147.63636363636368" as="geometry" />
        </mxCell>
        <mxCell id="2OWX0lFxsrAblKGcUKh9-1060" value="" style="shape=image;html=1;verticalAlign=top;verticalLabelPosition=bottom;labelBackgroundColor=#ffffff;imageAspect=0;aspect=fixed;image=https://cdn4.iconfinder.com/data/icons/ionicons/512/icon-social-github-128.png" parent="4n4TojT3hLfVld2RYmvY-1050" vertex="1">
          <mxGeometry x="28" y="28" width="112" height="112" as="geometry" />
        </mxCell>
        <mxCell id="4n4TojT3hLfVld2RYmvY-1056" value="" style="edgeStyle=orthogonalEdgeStyle;orthogonalLoop=1;jettySize=auto;html=1;rounded=1;strokeColor=#EEECE1;strokeWidth=4;fontSize=200;startArrow=oval;startFill=1;endArrow=oval;endFill=1;startSize=12;endSize=12;" edge="1" parent="4n4TojT3hLfVld2RYmvY-1050">
          <mxGeometry width="80" relative="1" as="geometry">
            <mxPoint x="189.81999999999994" y="88" as="sourcePoint" />
            <mxPoint x="20" y="-222" as="targetPoint" />
            <Array as="points">
              <mxPoint x="280" y="88" />
              <mxPoint x="280" y="-112" />
              <mxPoint x="20" y="-112" />
            </Array>
          </mxGeometry>
        </mxCell>
        <mxCell id="4n4TojT3hLfVld2RYmvY-1054" value="" style="edgeStyle=orthogonalEdgeStyle;orthogonalLoop=1;jettySize=auto;html=1;rounded=1;strokeWidth=4;fontSize=200;startSize=12;endSize=12;endArrow=none;endFill=0;strokeColor=#EEECE1;dashed=1;dashPattern=1 1;" edge="1" parent="1">
          <mxGeometry width="80" relative="1" as="geometry">
            <mxPoint x="1230" y="560" as="sourcePoint" />
            <mxPoint x="1550" y="510" as="targetPoint" />
            <Array as="points">
              <mxPoint x="1550" y="560" />
            </Array>
          </mxGeometry>
        </mxCell>
        <mxCell id="4n4TojT3hLfVld2RYmvY-1055" value="" style="edgeStyle=none;orthogonalLoop=1;jettySize=auto;html=1;rounded=1;dashed=1;dashPattern=1 1;strokeColor=#EEECE1;strokeWidth=4;fontSize=200;endArrow=oval;endFill=0;startSize=12;endSize=12;startArrow=oval;startFill=0;" edge="1" parent="1">
          <mxGeometry width="80" relative="1" as="geometry">
            <mxPoint x="1190" y="690" as="sourcePoint" />
            <mxPoint x="1190" y="850" as="targetPoint" />
            <Array as="points" />
          </mxGeometry>
        </mxCell>
        <mxCell id="4n4TojT3hLfVld2RYmvY-1057" value="" style="edgeStyle=none;orthogonalLoop=1;jettySize=auto;html=1;rounded=1;dashed=1;dashPattern=1 1;strokeColor=#EEECE1;strokeWidth=4;fontSize=200;endArrow=none;endFill=0;startSize=12;endSize=12;startArrow=none;startFill=0;" edge="1" parent="1">
          <mxGeometry width="80" relative="1" as="geometry">
            <mxPoint x="1709.82" y="1180" as="sourcePoint" />
            <mxPoint x="1709.82" y="1300" as="targetPoint" />
            <Array as="points" />
          </mxGeometry>
        </mxCell>
        <mxCell id="4n4TojT3hLfVld2RYmvY-1058" value="" style="edgeStyle=orthogonalEdgeStyle;orthogonalLoop=1;jettySize=auto;html=1;rounded=1;strokeColor=#EEECE1;strokeWidth=4;fontSize=42;startArrow=oval;startFill=1;endArrow=oval;endFill=1;startSize=12;endSize=12;" edge="1" parent="1">
          <mxGeometry width="80" relative="1" as="geometry">
            <mxPoint x="1360" y="1970" as="sourcePoint" />
            <mxPoint x="1530" y="1460" as="targetPoint" />
            <Array as="points">
              <mxPoint x="1150" y="1970" />
              <mxPoint x="1150" y="1580" />
              <mxPoint x="1530" y="1580" />
            </Array>
          </mxGeometry>
        </mxCell>
        <mxCell id="4n4TojT3hLfVld2RYmvY-1059" value="" style="edgeStyle=orthogonalEdgeStyle;orthogonalLoop=1;jettySize=auto;html=1;rounded=1;dashed=1;dashPattern=1 1;strokeColor=#EEECE1;strokeWidth=4;fontSize=200;endArrow=none;endFill=0;startSize=12;endSize=12;startArrow=none;startFill=0;" edge="1" parent="1">
          <mxGeometry width="80" relative="1" as="geometry">
            <mxPoint x="1280" y="1560" as="sourcePoint" />
            <mxPoint x="1129.9999999999995" y="1830" as="targetPoint" />
            <Array as="points">
              <mxPoint x="1280" y="1560" />
              <mxPoint x="1130" y="1560" />
            </Array>
          </mxGeometry>
        </mxCell>
        <mxCell id="4n4TojT3hLfVld2RYmvY-1061" value="" style="edgeStyle=orthogonalEdgeStyle;orthogonalLoop=1;jettySize=auto;html=1;rounded=1;strokeColor=#EEECE1;strokeWidth=4;fontSize=42;startArrow=oval;startFill=1;endArrow=oval;endFill=1;startSize=12;endSize=12;" edge="1" parent="1">
          <mxGeometry width="80" relative="1" as="geometry">
            <mxPoint x="1470" y="2070" as="sourcePoint" />
            <mxPoint x="1640" y="2400" as="targetPoint" />
            <Array as="points">
              <mxPoint x="1470" y="2160" />
              <mxPoint x="1710" y="2160" />
              <mxPoint x="1710" y="2400" />
            </Array>
          </mxGeometry>
        </mxCell>
        <mxCell id="4n4TojT3hLfVld2RYmvY-1062" value="" style="edgeStyle=none;orthogonalLoop=1;jettySize=auto;html=1;rounded=1;strokeColor=#EEECE1;strokeWidth=4;fontSize=42;startArrow=oval;startFill=0;endArrow=oval;endFill=0;startSize=12;endSize=12;dashed=1;dashPattern=1 1;" edge="1" parent="1">
          <mxGeometry width="80" relative="1" as="geometry">
            <mxPoint x="1690" y="2220" as="sourcePoint" />
            <mxPoint x="1690" y="2350" as="targetPoint" />
            <Array as="points" />
          </mxGeometry>
        </mxCell>
      </root>
    </mxGraphModel>
  </diagram>
</mxfile>
